<svg xmlns="http://www.w3.org/2000/svg" version="1.1" viewBox="0.00 0.00 56.00 56.00" width="16" height="16">
<g stroke-width="2.00" fill="none" stroke-linecap="butt">
<path stroke="#787c8a" stroke-opacity="0.996" d="&#10;  M 41.74 51.64&#10;  Q 27.63 50.89 13.49 51.57"/>
<path stroke="#8c7d2f" d="&#10;  M 21.33 33.09&#10;  L 18.79 30.78&#10;  A 1.21 1.20 -46.2 0 0 17.12 30.82&#10;  Q 14.85 33.08 12.36 35.62&#10;  C 10.30 37.71 11.05 43.99 11.06 46.62&#10;  Q 11.07 47.83 12.28 47.83&#10;  L 16.77 47.81&#10;  Q 18.00 47.81 17.80 46.59&#10;  Q 17.34 43.80 17.80 42.77&#10;  Q 18.63 40.87 20.28 41.76&#10;  A 1.80 1.78 14.0 0 1 21.21 43.29&#10;  L 21.29 47.27&#10;  Q 21.30 47.71 21.73 47.80&#10;  Q 23.44 48.15 24.61 47.66"/>
<path stroke="#812e3e" d="&#10;  M 24.61 47.66&#10;  L 27.95 47.72&#10;  Q 28.47 47.72 28.49 47.21&#10;  Q 28.59 44.56 28.46 41.91&#10;  C 28.35 39.35 25.69 36.48 29.58 34.74&#10;  A 1.89 1.89 0.0 0 1 32.12 35.82&#10;  Q 32.54 36.97 31.86 37.97&#10;  Q 31.61 38.34 31.60 38.80&#10;  L 31.54 45.51&#10;  Q 31.54 45.91 31.77 46.25&#10;  L 32.02 46.63&#10;  Q 32.12 46.78 32.03 46.93&#10;  L 31.85 47.25&#10;  A 0.34 0.34 0.0 0 0 32.14 47.76&#10;  L 41.78 47.78&#10;  Q 42.67 47.78 42.70 46.90&#10;  L 42.98 38.60&#10;  A 3.76 3.75 -67.0 0 0 41.85 35.80&#10;  Q 39.89 33.89 37.54 31.78&#10;  C 35.14 29.62 36.66 24.63 36.08 21.74&#10;  A 0.47 0.47 0.0 0 0 35.46 21.39&#10;  Q 35.16 21.49 35.16 21.88&#10;  Q 35.12 27.43 35.11 32.51&#10;  A 1.25 1.25 0.0 0 1 33.01 33.42&#10;  Q 30.42 30.99 27.93 28.56&#10;  Q 26.81 27.46 25.74 28.52&#10;  C 24.23 30.03 22.66 31.30 21.33 33.09"/>
<path stroke="#f17824" d="&#10;  M 24.61 47.66&#10;  Q 24.54 43.21 24.42 38.80&#10;  C 24.35 36.01 23.31 34.80 21.33 33.09"/>
<path stroke="#812e3e" d="&#10;  M 38.51 35.52&#10;  A 1.60 1.60 0.0 0 0 36.91 33.92&#10;  A 1.60 1.60 0.0 0 0 35.31 35.52&#10;  A 1.60 1.60 0.0 0 0 36.91 37.12&#10;  A 1.60 1.60 0.0 0 0 38.51 35.52"/>
<path stroke="#8c7d2f" d="&#10;  M 19.45 35.44&#10;  A 1.68 1.68 0.0 0 0 17.77 33.76&#10;  A 1.68 1.68 0.0 0 0 16.09 35.44&#10;  A 1.68 1.68 0.0 0 0 17.77 37.12&#10;  A 1.68 1.68 0.0 0 0 19.45 35.44"/>
</g>
<path fill="#1c3249" d="&#10;  M 41.74 51.64&#10;  Q 27.63 50.89 13.49 51.57&#10;  L 9.79 51.23&#10;  A 2.23 2.22 2.4 0 1 7.76 49.03&#10;  Q 7.76 44.78 7.71 40.55&#10;  Q 7.71 40.00 7.47 39.62&#10;  Q 7.12 39.05 6.76 38.96&#10;  A 1.21 1.21 0.0 0 1 6.18 36.97&#10;  Q 10.37 32.35 15.19 28.23&#10;  C 16.95 26.72 18.85 26.10 20.58 27.88&#10;  A 0.69 0.68 46.6 0 0 21.52 27.91&#10;  L 24.96 24.77&#10;  A 2.96 2.96 0.0 0 1 28.90 24.73&#10;  L 31.39 26.91&#10;  Q 31.81 27.27 31.85 26.72&#10;  L 32.26 20.82&#10;  A 0.70 0.68 -68.1 0 0 32.03 20.26&#10;  L 31.61 19.90&#10;  A 0.37 0.36 22.4 0 1 31.48 19.60&#10;  Q 31.59 17.58 31.36 15.58&#10;  C 31.01 12.55 35.20 7.93 37.75 7.28&#10;  C 44.56 5.55 46.96 16.26 40.23 17.95&#10;  Q 39.75 18.08 39.79 18.58&#10;  Q 39.81 18.79 39.84 19.02&#10;  Q 39.87 19.26 39.83 19.47&#10;  Q 38.96 23.84 39.73 28.25&#10;  Q 39.82 28.80 40.22 29.20&#10;  L 47.55 36.47&#10;  A 1.69 1.69 0.0 0 1 47.44 38.97&#10;  L 46.70 39.59&#10;  A 1.17 1.15 -20.2 0 0 46.28 40.48&#10;  L 46.26 49.17&#10;  A 1.89 1.88 -12.7 0 1 45.18 50.87&#10;  Q 43.81 51.50 41.74 51.64&#10;  Z&#10;  M 37.53 15.32&#10;  Q 38.22 15.00 38.96 15.06&#10;  Q 39.51 15.11 39.96 14.79&#10;  Q 41.37 13.79 41.11 12.09&#10;  C 40.91 10.78 39.58 10.23 38.48 10.70&#10;  C 36.91 11.38 37.38 13.24 35.09 13.66&#10;  A 1.04 1.03 67.4 0 0 34.43 15.27&#10;  Q 35.18 16.36 34.87 17.65&#10;  A 0.39 0.38 5.0 0 0 35.27 18.12&#10;  L 35.91 18.08&#10;  A 0.66 0.66 0.0 0 0 36.50 17.61&#10;  L 37.04 15.87&#10;  A 0.92 0.90 -4.1 0 1 37.53 15.32&#10;  Z&#10;  M 21.33 33.09&#10;  L 18.79 30.78&#10;  A 1.21 1.20 -46.2 0 0 17.12 30.82&#10;  Q 14.85 33.08 12.36 35.62&#10;  C 10.30 37.71 11.05 43.99 11.06 46.62&#10;  Q 11.07 47.83 12.28 47.83&#10;  L 16.77 47.81&#10;  Q 18.00 47.81 17.80 46.59&#10;  Q 17.34 43.80 17.80 42.77&#10;  Q 18.63 40.87 20.28 41.76&#10;  A 1.80 1.78 14.0 0 1 21.21 43.29&#10;  L 21.29 47.27&#10;  Q 21.30 47.71 21.73 47.80&#10;  Q 23.44 48.15 24.61 47.66&#10;  L 27.95 47.72&#10;  Q 28.47 47.72 28.49 47.21&#10;  Q 28.59 44.56 28.46 41.91&#10;  C 28.35 39.35 25.69 36.48 29.58 34.74&#10;  A 1.89 1.89 0.0 0 1 32.12 35.82&#10;  Q 32.54 36.97 31.86 37.97&#10;  Q 31.61 38.34 31.60 38.80&#10;  L 31.54 45.51&#10;  Q 31.54 45.91 31.77 46.25&#10;  L 32.02 46.63&#10;  Q 32.12 46.78 32.03 46.93&#10;  L 31.85 47.25&#10;  A 0.34 0.34 0.0 0 0 32.14 47.76&#10;  L 41.78 47.78&#10;  Q 42.67 47.78 42.70 46.90&#10;  L 42.98 38.60&#10;  A 3.76 3.75 -67.0 0 0 41.85 35.80&#10;  Q 39.89 33.89 37.54 31.78&#10;  C 35.14 29.62 36.66 24.63 36.08 21.74&#10;  A 0.47 0.47 0.0 0 0 35.46 21.39&#10;  Q 35.16 21.49 35.16 21.88&#10;  Q 35.12 27.43 35.11 32.51&#10;  A 1.25 1.25 0.0 0 1 33.01 33.42&#10;  Q 30.42 30.99 27.93 28.56&#10;  Q 26.81 27.46 25.74 28.52&#10;  C 24.23 30.03 22.66 31.30 21.33 33.09&#10;  Z"/>
<path fill="#e62932" d="&#10;  M 24.61 47.66&#10;  Q 24.54 43.21 24.42 38.80&#10;  C 24.35 36.01 23.31 34.80 21.33 33.09&#10;  C 22.66 31.30 24.23 30.03 25.74 28.52&#10;  Q 26.81 27.46 27.93 28.56&#10;  Q 30.42 30.99 33.01 33.42&#10;  A 1.25 1.25 0.0 0 0 35.11 32.51&#10;  Q 35.12 27.43 35.16 21.88&#10;  Q 35.16 21.49 35.46 21.39&#10;  A 0.47 0.47 0.0 0 1 36.08 21.74&#10;  C 36.66 24.63 35.14 29.62 37.54 31.78&#10;  Q 39.89 33.89 41.85 35.80&#10;  A 3.76 3.75 -67.0 0 1 42.98 38.60&#10;  L 42.70 46.90&#10;  Q 42.67 47.78 41.78 47.78&#10;  L 32.14 47.76&#10;  A 0.34 0.34 0.0 0 1 31.85 47.25&#10;  L 32.03 46.93&#10;  Q 32.12 46.78 32.02 46.63&#10;  L 31.77 46.25&#10;  Q 31.54 45.91 31.54 45.51&#10;  L 31.60 38.80&#10;  Q 31.61 38.34 31.86 37.97&#10;  Q 32.54 36.97 32.12 35.82&#10;  A 1.89 1.89 0.0 0 0 29.58 34.74&#10;  C 25.69 36.48 28.35 39.35 28.46 41.91&#10;  Q 28.59 44.56 28.49 47.21&#10;  Q 28.47 47.72 27.95 47.72&#10;  L 24.61 47.66&#10;  Z&#10;  M 38.51 35.52&#10;  A 1.60 1.60 0.0 0 0 36.91 33.92&#10;  A 1.60 1.60 0.0 0 0 35.31 35.52&#10;  A 1.60 1.60 0.0 0 0 36.91 37.12&#10;  A 1.60 1.60 0.0 0 0 38.51 35.52&#10;  Z"/>
<path fill="#fbc715" d="&#10;  M 21.33 33.09&#10;  C 23.31 34.80 24.35 36.01 24.42 38.80&#10;  Q 24.54 43.21 24.61 47.66&#10;  Q 23.44 48.15 21.73 47.80&#10;  Q 21.30 47.71 21.29 47.27&#10;  L 21.21 43.29&#10;  A 1.80 1.78 14.0 0 0 20.28 41.76&#10;  Q 18.63 40.87 17.80 42.77&#10;  Q 17.34 43.80 17.80 46.59&#10;  Q 18.00 47.81 16.77 47.81&#10;  L 12.28 47.83&#10;  Q 11.07 47.83 11.06 46.62&#10;  C 11.05 43.99 10.30 37.71 12.36 35.62&#10;  Q 14.85 33.08 17.12 30.82&#10;  A 1.21 1.20 -46.2 0 1 18.79 30.78&#10;  L 21.33 33.09&#10;  Z&#10;  M 19.45 35.44&#10;  A 1.68 1.68 0.0 0 0 17.77 33.76&#10;  A 1.68 1.68 0.0 0 0 16.09 35.44&#10;  A 1.68 1.68 0.0 0 0 17.77 37.12&#10;  A 1.68 1.68 0.0 0 0 19.45 35.44&#10;  Z"/>
<circle fill="#1c3249" cx="17.77" cy="35.44" r="1.68"/>
<circle fill="#1c3249" cx="36.91" cy="35.52" r="1.60"/>
<path fill="#d5c7cb" fill-opacity="0.988" d="&#10;  M 41.74 51.64&#10;  Q 27.76 53.71 13.49 51.57&#10;  Q 27.63 50.89 41.74 51.64&#10;  Z"/>
</svg>